<svg width="76" height="76" viewBox="0 0 76 76" fill="none" xmlns="http://www.w3.org/2000/svg">
<g clip-path="url(#clip0_20_644)">
<rect x="2" y="2" width="72" height="72" rx="36" stroke="white" stroke-width="2.72"/>
<rect x="6" y="6" width="64" height="64" rx="32" fill="white"/>
<mask id="mask0_20_644" style="mask-type:alpha" maskUnits="userSpaceOnUse" x="20" y="20" width="36" height="36">
<rect x="20" y="20" width="36" height="36" fill="#D9D9D9"/>
</mask>
<g mask="url(#mask0_20_644)">
<path d="M38 46.25C39.875 46.25 41.469 45.594 42.782 44.282C44.094 42.969 44.75 41.375 44.75 39.5C44.75 37.625 44.094 36.031 42.782 34.718C41.469 33.406 39.875 32.75 38 32.75C36.125 32.75 34.531 33.406 33.218 34.718C31.906 36.031 31.25 37.625 31.25 39.5C31.25 41.375 31.906 42.969 33.218 44.282C34.531 45.594 36.125 46.25 38 46.25ZM26 51.5C25.175 51.5 24.469 51.2065 23.882 50.6195C23.294 50.0315 23 49.325 23 48.5V30.5C23 29.675 23.294 28.969 23.882 28.382C24.469 27.794 25.175 27.5 26 27.5H30.725L32.6 25.475C32.875 25.15 33.206 24.906 33.593 24.743C33.981 24.581 34.3875 24.5 34.8125 24.5H41.1875C41.6125 24.5 42.019 24.581 42.407 24.743C42.794 24.906 43.125 25.15 43.4 25.475L45.275 27.5H50C50.825 27.5 51.5315 27.794 52.1195 28.382C52.7065 28.969 53 29.675 53 30.5V48.5C53 49.325 52.7065 50.0315 52.1195 50.6195C51.5315 51.2065 50.825 51.5 50 51.5H26Z" fill="#D2010D"/>
</g>
</g>
<defs>
<clipPath id="clip0_20_644">
<rect width="76" height="76" fill="white"/>
</clipPath>
</defs>
</svg>
