<svg width="54" height="54" viewBox="0 0 54 54" fill="none" xmlns="http://www.w3.org/2000/svg">
<mask id="mask0_376_1746" style="mask-type:alpha" maskUnits="userSpaceOnUse" x="0" y="0" width="54" height="54">
<rect width="54" height="54" fill="#D9D9D9"/>
</mask>
<g mask="url(#mask0_376_1746)">
</g>
<path d="M26.9996 20.25V29.25M26.9996 38.25H27.0221M23.884 8.75634L5.37793 40.7212C4.35146 42.4942 3.83824 43.3807 3.91408 44.1083C3.98026 44.7428 4.31274 45.3195 4.8288 45.6948C5.42044 46.125 6.44479 46.125 8.49346 46.125H45.5054C47.5542 46.125 48.5784 46.125 49.1702 45.6948C49.6861 45.3195 50.0186 44.7428 50.0848 44.1083C50.1606 43.3807 49.6474 42.4942 48.6209 40.7212L30.1149 8.75634C29.0923 6.98971 28.5809 6.1064 27.9137 5.80974C27.3317 5.55097 26.6672 5.55097 26.0854 5.80974C25.418 6.1064 24.9066 6.98973 23.884 8.75634Z" stroke="black" stroke-width="4.5" stroke-linecap="round" stroke-linejoin="round"/>
</svg>
