<svg width="64" height="51" viewBox="0 0 64 51" fill="none" xmlns="http://www.w3.org/2000/svg">
<g clip-path="url(#clip0_125_1974)">
<mask id="mask0_125_1974" style="mask-type:luminance" maskUnits="userSpaceOnUse" x="0" y="0" width="64" height="51">
<path d="M0 0.0565186H63.9739V50.0639H0V0.0565186Z" fill="#F5010B"/>
</mask>
<g mask="url(#mask0_125_1974)">
<path fill-rule="evenodd" clip-rule="evenodd" d="M63.9739 22.3226C63.9739 59.3109 0 59.3109 0 22.3226V0.0564575H63.9739V22.3226Z" fill="#D2010D"/>
</g>
<path fill-rule="evenodd" clip-rule="evenodd" d="M39.427 30.1131C37.1641 31.2106 34.6864 31.7822 32.1985 31.78C29.7098 31.7786 27.2336 31.2041 24.9743 30.1037C22.7069 29.012 20.6768 27.4009 18.9457 25.4522L18.3326 27.0328C19.7307 29.1156 21.644 30.8925 23.8729 32.1705C26.3745 33.6092 29.2876 34.3872 32.1985 34.3821C35.1093 34.3843 38.0202 33.6027 40.519 32.1618C42.7522 30.8773 44.6676 29.0917 46.0635 26.9988L45.4671 25.4638C43.7316 27.4125 41.6972 29.0229 39.427 30.1131ZM46.9069 21.2604C46.7712 21.0829 46.8067 20.7272 47.0012 20.2398C47.0012 20.2398 47.9901 17.8151 48.1606 17.3942H49.6595L50.0426 16.3974H48.5458L48.9964 15.1898L46.7189 15.581L46.407 16.3974H45.4028L45.04 17.3942H46.0355L44.839 20.3527C44.5322 21.104 44.5155 21.6538 44.7904 22.0319C45.0574 22.4014 45.5915 22.5825 46.4192 22.5825C46.8829 22.5825 47.5105 22.4868 48.0017 22.3579L48.4849 21.1931V21.1916C48.2107 21.3046 47.7674 21.4191 47.4068 21.4321C47.1499 21.4423 46.9997 21.3857 46.9069 21.2604ZM57.6814 16.7411C57.3143 16.7411 57.043 16.4419 57.043 16.079C57.043 15.7037 57.3143 15.411 57.6749 15.411H57.6793C58.0565 15.411 58.3293 15.7037 58.3293 16.0731C58.3293 16.4419 58.0565 16.7462 57.6814 16.7411ZM57.6981 15.1901H57.6814C57.1764 15.1901 56.7716 15.5849 56.7716 16.0731C56.7716 16.5672 57.1764 16.962 57.6814 16.962C58.1951 16.962 58.5971 16.5672 58.5971 16.0731C58.5971 15.5849 58.1951 15.1901 57.6981 15.1901ZM20.9003 18.9139C20.3554 21.5863 18.7316 21.7232 18.4124 21.7232C17.8965 21.7232 17.5236 21.5935 17.3052 21.3385C17.0672 21.0626 17.007 20.6329 17.1231 20.0629C17.3349 19.0291 18.2346 17.4861 19.8482 17.4861C20.2385 17.4861 20.5302 17.5969 20.7138 17.8135C20.9286 18.0634 20.9939 18.4539 20.9003 18.9139ZM23.0929 19.1826C23.4941 17.4281 21.9443 16.4429 19.8903 16.4429C17.7245 16.4429 15.3434 17.7367 14.9044 19.9187C14.4371 22.2491 16.5151 22.7497 17.8486 22.7649C20.848 22.8011 22.6728 21.0089 23.0929 19.1826ZM57.6568 16.0275H57.5827V15.8334C57.6016 15.8334 57.635 15.8276 57.6669 15.8276C57.7482 15.8276 57.8084 15.8631 57.8084 15.9305C57.8084 15.9862 57.7453 16.0275 57.6568 16.0275ZM57.907 16.0883V16.079C58.0203 16.0478 58.0979 15.9761 58.0979 15.8935C58.0979 15.8117 58.0609 15.7501 58.0101 15.7131C57.9477 15.6726 57.8657 15.6479 57.6793 15.6479C57.5109 15.6479 57.3774 15.6682 57.3201 15.6776V16.4941H57.574V16.1963H57.6568C57.7394 16.1963 57.7787 16.2376 57.7939 16.3202C57.8084 16.3926 57.8237 16.4636 57.8505 16.4941H58.1327C58.1182 16.4636 58.1022 16.4173 58.0761 16.2992C58.0515 16.1818 57.9985 16.1144 57.907 16.0883ZM54.7169 18.8129H51.925C52.1376 18.1515 52.7609 17.43 53.8789 17.43C54.2693 17.43 54.5414 17.5285 54.6915 17.7241C54.8685 17.9552 54.8765 18.3319 54.7169 18.8129ZM54.1691 16.3463C51.8431 16.3463 49.8638 17.6408 49.3494 19.4932C49.0904 20.4291 49.2253 21.2506 49.7376 21.867C50.302 22.5473 51.2931 22.9218 52.5258 22.9218C53.2383 22.9218 54.0966 22.7951 54.873 22.5618L55.5136 21.2462C54.915 21.5368 53.8789 21.6947 53.1882 21.6947C52.5838 21.6947 52.0919 21.4932 51.8002 21.1274C51.534 20.7956 51.4672 20.3523 51.6 19.8706H56.5141L56.5381 19.8068C56.9226 18.7383 56.8747 17.8117 56.4002 17.196C55.9678 16.6324 55.2125 16.3463 54.1691 16.3463ZM9.6601 18.9363C10.0142 16.9709 11.9122 15.4793 14.1635 15.4793C14.8578 15.4793 15.4804 15.6112 16.0354 15.8401L16.692 14.5616C16.1377 14.3095 15.352 14.153 14.6192 14.153C11.0234 14.153 7.66048 16.2002 7.18305 18.9276C6.76301 21.3356 8.8453 22.6765 11.4021 22.6765C12.0885 22.6765 12.8503 22.5685 13.483 22.42L14.1679 20.8835C13.7775 21.0689 12.8314 21.3515 12.0834 21.3515C10.0642 21.3515 9.44535 20.1279 9.6601 18.9363ZM29.8064 19.4078C30.3701 18.1944 31.5078 17.6395 32.2304 17.6127C32.7695 17.5917 33.2186 17.6735 33.5785 18.0155C32.7303 21.3094 31.013 21.568 30.5037 21.568C29.2535 21.568 29.3667 20.3546 29.8064 19.4078ZM27.7706 22.0787C28.1631 22.5076 28.7573 22.6749 29.4618 22.7061C30.5037 22.7517 31.4577 22.5438 32.3712 21.9483C31.8365 23.5326 30.0118 23.8615 28.787 23.8543C28.1891 23.8507 27.534 23.8253 27.0167 23.5776L26.4798 24.9235C27.0167 25.0662 27.8184 25.1597 28.4598 25.1597C31.4642 25.1597 33.3964 24.0868 34.2017 21.9759L36.2536 16.5797C36.2536 16.5797 35.6427 16.7463 35.2269 16.7463C34.1263 16.7463 34.0777 16.445 32.287 16.445C29.7164 16.445 27.603 18.3349 27.3019 20.4205C27.2061 21.0776 27.3911 21.6665 27.7706 22.0787ZM38.0053 20.6674C38.1011 20.1227 38.5219 19.8293 39.6545 19.7126C40.2254 19.6547 40.7587 19.638 41.5438 19.6822L41.0199 21.0506C40.5491 21.2861 39.8809 21.4353 39.2649 21.4628C38.2107 21.5085 37.9291 21.1021 38.0053 20.6674ZM38.1845 22.7458C39.8409 22.7458 40.2777 22.4879 41.2884 22.4597C42.4173 22.427 42.9607 22.6256 42.9607 22.6256C42.8882 22.301 42.8127 21.9525 43.1617 21.0368C43.4135 20.382 43.708 19.6047 43.9947 18.8636C44.6556 17.146 43.2394 16.3832 40.935 16.3832C39.5014 16.3832 38.7592 16.518 37.9741 16.6433L37.4343 18.0494C37.9487 17.89 39.0595 17.606 40.6862 17.6183C42.2055 17.6278 42.0705 18.2551 41.977 18.5623C41.4524 18.5246 40.4895 18.4775 39.4078 18.5623C38.7069 18.6173 38.0307 18.7079 37.3516 18.9781C36.3272 19.3852 35.8693 20.1009 35.8062 20.9232C35.7373 21.8605 36.3925 22.7458 38.1845 22.7458ZM25.0778 22.6256L28.3006 14.3252H26.1617L22.9396 22.6256H25.0778Z" fill="white"/>
<g clip-path="url(#clip1_125_1974)">
<path fill-rule="evenodd" clip-rule="evenodd" d="M63.9744 22.2663C63.9744 59.2553 0 59.2553 0 22.2663V0H63.9744V22.2663Z" fill="#D2010D"/>
<path fill-rule="evenodd" clip-rule="evenodd" d="M39.4273 30.0573C37.1649 31.1548 34.6865 31.7267 32.1985 31.7235C29.7105 31.7235 27.2337 31.1484 24.9745 30.0477C22.7073 28.9566 20.6769 27.3447 18.9457 25.3958L18.3329 26.9757C19.7313 29.0589 21.6449 30.8353 23.8737 32.1133C26.3761 33.5527 29.2881 34.3307 32.2001 34.3243C35.1105 34.3259 38.0225 33.5447 40.5201 32.1038C42.7537 30.8193 44.6689 29.0333 46.0641 26.9406L45.4673 25.4053C43.7313 27.3543 41.6977 28.9646 39.4273 30.0541V30.0573ZM46.9073 21.2039C46.7713 21.0265 46.8065 20.6703 47.0017 20.1831C47.0017 20.1831 47.9905 17.758 48.1617 17.3379H49.6609L50.0433 16.341H48.5457L48.9969 15.1333L46.7201 15.5247L46.4081 16.341H45.4033L45.0401 17.3379H46.0353L44.8385 20.2965C44.5313 21.0473 44.5153 21.5969 44.7905 21.9755C45.0577 22.3445 45.5921 22.5266 46.4193 22.5266C46.8833 22.5266 47.5105 22.4308 48.0017 22.3014L48.4849 21.1368C48.2113 21.2486 47.7681 21.362 47.4065 21.3764C47.1489 21.386 47.0001 21.3301 46.9073 21.2055V21.2039ZM57.6817 16.6845C57.3153 16.6845 57.0433 16.3857 57.0433 16.0231C57.0433 15.6605 57.3153 15.3553 57.6753 15.3553H57.6801C58.0577 15.3553 58.3297 15.6477 58.3297 16.0167C58.3297 16.3857 58.0577 16.6893 57.6817 16.6845ZM57.6977 15.1333H57.6817C57.1761 15.1333 56.7713 15.5279 56.7713 16.0167C56.7713 16.5056 57.1761 16.9049 57.6817 16.9049C58.1873 16.9049 58.5969 16.5104 58.5969 16.0167C58.5969 15.5231 58.1953 15.1333 57.6977 15.1333ZM20.8993 18.8571C20.3537 21.5298 18.7313 21.6672 18.4113 21.6672C17.8961 21.6672 17.5233 21.5378 17.3041 21.2821C17.0657 21.0058 17.0065 20.576 17.1217 20.0057C17.3329 18.9721 18.2337 17.4289 19.8465 17.4289C20.2369 17.4289 20.5281 17.5392 20.7121 17.7564C20.9265 18.0056 20.9921 18.397 20.8993 18.8571ZM23.0913 19.1255C23.4929 17.3714 21.9425 16.3857 19.8881 16.3857C17.7217 16.3857 15.3409 17.6797 14.9025 19.862C14.4353 22.1927 16.5137 22.6928 17.8465 22.7087C20.8465 22.7455 22.6705 20.9531 23.0913 19.1271V19.1255ZM57.6545 15.9704H57.5809V15.7755C57.6001 15.7755 57.6337 15.7691 57.6657 15.7691C57.7473 15.7691 57.8065 15.8042 57.8065 15.8713C57.8065 15.9273 57.7441 15.9688 57.6545 15.9688V15.9704ZM57.9041 16.0311V16.0215C58.0177 15.9912 58.0945 15.9193 58.0945 15.8362C58.0945 15.7531 58.0577 15.6924 58.0065 15.6557C57.9441 15.6157 57.8625 15.5902 57.6753 15.5902C57.5073 15.5902 57.3729 15.6109 57.3169 15.6205V16.4369H57.5713V16.1397H57.6545C57.7377 16.1397 57.7761 16.1813 57.7921 16.2643C57.8065 16.3362 57.8225 16.4081 57.8481 16.4385H58.1297C58.1153 16.4081 58.0993 16.3618 58.0737 16.2436C58.0497 16.1269 57.9953 16.0583 57.9041 16.0327V16.0311ZM54.7137 18.7565H51.9217C52.1345 18.0951 52.7569 17.373 53.8753 17.373C54.2657 17.373 54.5377 17.4721 54.6881 17.667C54.8657 17.8986 54.8737 18.274 54.7137 18.7565ZM54.1665 16.2899C51.8401 16.2899 49.8609 17.5839 49.3473 19.437C49.0881 20.3732 49.2225 21.1943 49.7361 21.8109C50.3009 22.4915 51.2913 22.8653 52.5249 22.8653C53.2369 22.8653 54.0961 22.7391 54.8721 22.5058L55.5121 21.1911C54.9137 21.4818 53.8769 21.64 53.1873 21.64C52.5825 21.64 52.0913 21.4387 51.7985 21.0729C51.5329 20.7406 51.4657 20.2981 51.5985 19.8156H56.5121L56.5361 19.7517C56.9201 18.683 56.8721 17.7564 56.3985 17.1414C55.9665 16.5774 55.2113 16.2915 54.1681 16.2915L54.1665 16.2899ZM9.66088 18.8795C10.0145 16.9145 11.9137 15.4224 14.1649 15.4224C14.8593 15.4224 15.4817 15.555 16.0369 15.7835L16.6929 14.5055C16.1393 14.2531 15.3521 14.0965 14.6193 14.0965C11.0241 14.0965 7.66088 16.1429 7.18248 18.8715C6.76168 21.279 8.84488 22.6209 11.4017 22.6209C12.0881 22.6209 12.8497 22.5122 13.4833 22.3637L14.1681 20.8269C13.7777 21.0122 12.8321 21.2949 12.0833 21.2949C10.0641 21.2949 9.44488 20.0712 9.65928 18.8795H9.66088ZM29.8065 19.3507C30.3697 18.1366 31.5073 17.5823 32.2305 17.5551C32.7697 17.5344 33.2193 17.6158 33.5793 17.9577C32.7313 21.2518 31.0145 21.5106 30.5041 21.5106C29.2545 21.5106 29.3665 20.2965 29.8065 19.3507ZM27.7713 22.0218C28.1633 22.4499 28.7585 22.6177 29.4625 22.6496C30.5041 22.696 31.4577 22.4867 32.3713 21.8924C31.8369 23.4771 30.0113 23.8062 28.7873 23.7982C28.1889 23.795 27.5345 23.7695 27.0177 23.5219L26.4801 24.8686C27.0177 25.0108 27.8193 25.105 28.4593 25.105C31.4641 25.105 33.3953 24.0315 34.2017 21.9212L36.2529 16.5247C36.2529 16.5247 35.6417 16.6909 35.2257 16.6909C34.1249 16.6909 34.0769 16.3889 32.2865 16.3889C29.7153 16.3889 27.6017 18.2788 27.3009 20.3652C27.2049 21.0218 27.3905 21.6112 27.7697 22.0234L27.7713 22.0218ZM38.0065 20.6112C38.1025 20.0664 38.5233 19.7725 39.6561 19.6559C40.2273 19.5984 40.7601 19.5808 41.5457 19.6255L41.0225 20.9946C40.5521 21.2294 39.8833 21.3796 39.2673 21.4068C38.2129 21.4531 37.9313 21.0457 38.0081 20.6112H38.0065ZM38.1857 22.6896C39.8417 22.6896 40.2785 22.4324 41.2897 22.4036C42.4193 22.3717 42.9617 22.5697 42.9617 22.5697C42.8897 22.2455 42.8129 21.8972 43.1633 20.9818C43.4145 20.3268 43.7089 19.5504 43.9969 18.8092C44.6577 17.0918 43.2417 16.3282 40.9377 16.3282C39.5041 16.3282 38.7617 16.4624 37.9761 16.5886L37.4369 17.9944C37.9521 17.8347 39.0625 17.5503 40.6881 17.5631C42.2081 17.5727 42.0721 18.2005 41.9793 18.5073C41.4545 18.4689 40.4913 18.4226 39.4097 18.5073C38.7089 18.5616 38.0321 18.6526 37.3537 18.9226C36.3297 19.33 35.8721 20.0457 35.8081 20.8684C35.7393 21.8061 36.3937 22.6912 38.1857 22.6912V22.6896ZM25.0785 22.5697L28.3009 14.269H26.1617L22.9393 22.5697H25.0769H25.0785Z" fill="white"/>
</g>
</g>
<defs>
<clipPath id="clip0_125_1974">
<rect width="64" height="50.1622" fill="white"/>
</clipPath>
<clipPath id="clip1_125_1974">
<rect width="63.9744" height="50.0072" fill="white"/>
</clipPath>
</defs>
</svg>
