<svg viewBox="0 0 80 32" fill="none" xmlns="http://www.w3.org/2000/svg">
  <g clip-path="url(#clip0_114_4744)">
    <path
      d="M17.5371 12.0395C16.7341 12.0395 16.1559 11.8387 15.8158 11.4409C15.4477 11.0115 15.3529 10.3423 15.5332 9.45556C15.8622 7.8457 17.2602 5.44394 19.7697 5.44394C20.3758 5.44394 20.8294 5.61682 21.1156 5.95329C21.4502 6.34367 21.5506 6.95155 21.4056 7.66724C20.5579 11.8276 18.0353 12.0395 17.539 12.0395M19.8367 3.81921C16.4701 3.81921 12.7689 5.83246 12.0867 9.23062C11.3617 12.8593 14.5907 13.6363 16.6634 13.6605C21.3257 13.7163 24.1625 10.9278 24.8149 8.08365C25.4377 5.35285 23.0304 3.81921 19.8367 3.81921Z"
      fill="white" />
    <path
      d="M50.556 8.90898C48.7956 9.09116 48.1413 9.5466 47.9925 10.3943C47.8736 11.0709 48.3123 11.703 49.95 11.6323C50.9074 11.5896 51.9465 11.3572 52.6771 10.991L53.4913 8.86065C52.2718 8.79187 51.4409 8.81789 50.5542 8.90712M47.9423 4.12962C49.1618 3.93443 50.3162 3.72437 52.5451 3.72437C56.1273 3.72437 58.3283 4.91224 57.3003 7.58541C56.8542 8.73982 56.3969 9.94814 56.0065 10.9687C55.4637 12.3927 55.5808 12.9373 55.6942 13.4411C55.6942 13.4411 54.8502 13.1325 53.0954 13.1827C51.5245 13.2273 50.846 13.6289 48.2714 13.6289C45.4867 13.6289 44.468 12.2495 44.5758 10.7921C44.6743 9.51128 45.3863 8.39777 46.9776 7.76387C48.0316 7.34375 49.0837 7.20246 50.1731 7.11695C51.8536 6.98497 53.3519 7.05747 54.1661 7.11695C54.313 6.6392 54.5212 5.66325 52.1603 5.64838C49.6321 5.62793 47.9052 6.07036 47.1058 6.31946L47.9461 4.13148L47.9423 4.12962Z"
      fill="white" />
    <path
      d="M36.3331 11.7978C34.3886 11.7978 34.5652 9.90908 35.2493 8.43494C36.1249 6.54624 37.8946 5.68183 39.0174 5.63907C39.8558 5.60747 40.5529 5.73574 41.1143 6.2674C39.7945 11.3944 37.125 11.7978 36.335 11.7978M43.676 4.29133C41.9657 4.29133 41.8895 3.82288 39.1067 3.82288C35.1099 3.82288 31.8251 6.76374 31.3567 10.0113C31.208 11.0338 31.4961 11.9502 32.0854 12.5934C32.697 13.2608 33.619 13.521 34.714 13.5712C36.335 13.6419 37.8165 13.3184 39.2368 12.3908C38.4058 14.8576 35.5691 15.3688 33.6655 15.3577C32.736 15.3521 31.7192 15.3131 30.9143 14.9264L30.0796 17.0214C30.9143 17.2445 32.1598 17.3895 33.158 17.3895C37.8277 17.3895 40.8318 15.7202 42.0828 12.4335L45.2728 4.03294C45.2728 4.03294 44.3229 4.29133 43.676 4.29133Z"
      fill="white" />
    <path
      d="M10.9399 10.7308C10.332 11.0208 8.86341 11.4595 7.69971 11.4595C4.5618 11.4595 3.60072 9.55592 3.93347 7.69883C4.48372 4.63899 7.43388 2.31716 10.9324 2.31716C12.0106 2.31716 12.9791 2.5235 13.8417 2.87856L14.8622 0.889485C14.0016 0.497246 12.7802 0.253723 11.6425 0.253723C6.05268 0.253723 0.825303 3.44183 0.0835812 7.68581C-0.568911 11.4353 2.66752 13.5229 6.64196 13.5229C7.709 13.5229 8.89315 13.3538 9.87654 13.1232L10.9399 10.7308Z"
      fill="white" />
    <path
      d="M64.3754 3.74854L65.0762 1.86914L61.5368 2.47702L61.0534 3.74854H59.4919L58.9287 5.30077H60.4753L58.6145 9.90539C58.1367 11.0747 58.1126 11.9316 58.5401 12.5209C58.9547 13.0954 59.7856 13.3779 61.072 13.3779C61.7933 13.3779 62.7692 13.2292 63.5333 13.0284L64.2843 11.2141C63.8567 11.387 63.1689 11.5654 62.6075 11.5859C62.2078 11.6008 61.9755 11.5134 61.8305 11.3182C61.6204 11.0431 61.6762 10.4891 61.9773 9.73065C61.9773 9.73065 63.5147 5.95512 63.7805 5.30077H66.1098L66.7046 3.74854H64.3772H64.3754Z"
      fill="white" />
    <path
      d="M72.6663 5.35465C73.2724 5.35465 73.6962 5.50894 73.9304 5.81381C74.2056 6.17445 74.2186 6.76002 73.9695 7.50917H69.6307C69.9616 6.47931 70.9301 5.35651 72.6682 5.35651M75.2094 11.2977C74.278 11.7494 72.6682 11.9948 71.5956 11.9948C70.6568 11.9948 69.8909 11.6825 69.4373 11.1118C69.0228 10.595 68.9187 9.90536 69.1269 9.15621H76.7653L76.8025 9.05582C77.4011 7.39206 77.3267 5.94951 76.5887 4.99215C75.9158 4.11473 74.7428 3.66858 73.1199 3.66858C69.5043 3.66858 66.4277 5.68368 65.6283 8.56692C65.225 10.0243 65.435 11.3033 66.2325 12.2625C67.1099 13.3203 68.651 13.904 70.5676 13.904C71.6737 13.904 73.0084 13.7069 74.2148 13.3444L75.2112 11.2959L75.2094 11.2977Z"
      fill="white" />
    <path
      d="M72.6663 5.35465C73.2724 5.35465 73.6962 5.50894 73.9304 5.81381C74.2056 6.17445 74.2186 6.76002 73.9695 7.50917H69.6307C69.9616 6.47931 70.9301 5.35651 72.6682 5.35651M75.2094 11.2977C74.278 11.7494 72.6682 11.9948 71.5956 11.9948C70.6568 11.9948 69.8909 11.6825 69.4373 11.1118C69.0228 10.595 68.9187 9.90536 69.1269 9.15621H76.7653L76.8025 9.05582C77.4011 7.39206 77.3267 5.94951 76.5887 4.99215C75.9158 4.11473 74.7428 3.66858 73.1199 3.66858C69.5043 3.66858 66.4277 5.68368 65.6283 8.56692C65.225 10.0243 65.435 11.3033 66.2325 12.2625C67.1099 13.3203 68.651 13.904 70.5676 13.904C71.6737 13.904 73.0084 13.7069 74.2148 13.3444L75.2112 11.2959L75.2094 11.2977Z"
      fill="white" />
    <path
      d="M78.4235 3.17227H78.5387C78.6763 3.17227 78.7729 3.10906 78.7729 3.02169C78.7729 2.91759 78.68 2.86182 78.5536 2.86182C78.5034 2.86182 78.4513 2.87112 78.4235 2.87112V3.17412V3.17227ZM78.4104 3.89912H78.0145V2.62759C78.1037 2.61272 78.3119 2.58112 78.5722 2.58112C78.8622 2.58112 78.9886 2.62016 79.0871 2.68336C79.167 2.74099 79.2247 2.83765 79.2247 2.96406C79.2247 3.09047 79.1038 3.20387 78.9272 3.2522V3.26707C79.0685 3.30797 79.1522 3.41393 79.1912 3.59611C79.2302 3.78014 79.2563 3.85264 79.2786 3.90098H78.8399C78.799 3.85264 78.7748 3.74296 78.7525 3.62957C78.7302 3.5013 78.6688 3.43624 78.5406 3.43624H78.4123V3.90098L78.4104 3.89912ZM78.5666 2.21305C78.0071 2.21305 77.5851 2.66849 77.5851 3.25406C77.5851 3.83963 78.0071 4.28578 78.5778 4.28578C79.1596 4.29321 79.5853 3.82104 79.5853 3.24477C79.5853 2.66849 79.1615 2.21305 78.574 2.21305H78.5685H78.5666ZM78.6019 1.86914C79.3752 1.86914 79.9998 2.48445 79.9998 3.24291C79.9998 4.00136 79.3752 4.62597 78.5759 4.62597C77.7765 4.62597 77.1631 4.01065 77.1631 3.24291C77.1631 2.47516 77.7914 1.86914 78.5759 1.86914H78.6019Z"
      fill="white" />
    <path d="M29.5835 0.521362L24.5754 13.4429H27.8992L32.9091 0.521362H29.5835Z" fill="white" />
    <path
      d="M59.5905 17.8617C56.8932 20.8955 53.7311 23.4032 50.2028 25.0986C46.6857 26.8069 42.834 27.6974 38.9673 27.6937C35.0989 27.6918 31.2508 26.7958 27.7393 25.0837C24.2147 23.3846 21.06 20.875 18.3701 17.8431L17.4165 20.3025C19.5896 23.5445 22.5639 26.3106 26.029 28.3015C29.918 30.5416 34.4445 31.7518 38.9692 31.7443C43.4939 31.748 48.0186 30.5323 51.9019 28.2885C55.3744 26.2883 58.3506 23.5092 60.52 20.2523L59.5943 17.8617H59.5905Z"
      fill="white" />
  </g>
  <defs>
    <clipPath id="clip0_114_4744">
      <rect width="80" height="31.4925" fill="white" transform="translate(0 0.253723)" />
    </clipPath>
  </defs>
</svg>