<svg width="24" height="24" viewBox="0 0 24 24" fill="none" xmlns="http://www.w3.org/2000/svg">
<g clip-path="url(#clip0_533_2808)">
<mask id="mask0_533_2808" style="mask-type:alpha" maskUnits="userSpaceOnUse" x="0" y="0" width="24" height="24">
<rect width="24" height="24" fill="#D9D9D9"/>
</mask>
<g mask="url(#mask0_533_2808)">
</g>
<path d="M9.77778 21.8889C9.77778 21.8889 6.74247 20.8336 4.93138 19.9763C3.1203 19.1191 2 17.9344 2 16.6257C2 15.2592 3.04575 14.4201 5 13.5556M9.77778 21.8889L3.5 23M9.77778 21.8889L9 19M14.7778 21.1774C18.9492 20.6073 22 18.7853 22 16.6257C22 15.2527 20.9705 13.8652 19 13" stroke="#D2010D" stroke-width="2" stroke-linecap="round" stroke-linejoin="round"/>
<path d="M12 12.625H12.0086M8.74286 16H15.2571C16.2172 16 16.6973 16 17.064 15.8365C17.3865 15.6927 17.6488 15.4632 17.8131 15.181C18 14.8602 18 14.4401 18 13.6V3.4C18 2.55992 18 2.13988 17.8131 1.81902C17.6488 1.53677 17.3865 1.3073 17.064 1.16349C16.6973 1 16.2172 1 15.2571 1H8.74286C7.78277 1 7.30272 1 6.93602 1.16349C6.61345 1.3073 6.3512 1.53677 6.18685 1.81902C6 2.13988 6 2.55992 6 3.4V13.6C6 14.4401 6 14.8602 6.18685 15.181C6.3512 15.4632 6.61345 15.6927 6.93602 15.8365C7.30272 16 7.78276 16 8.74286 16ZM12.4286 12.625C12.4286 12.8321 12.2367 13 12 13C11.7633 13 11.5714 12.8321 11.5714 12.625C11.5714 12.4179 11.7633 12.25 12 12.25C12.2367 12.25 12.4286 12.4179 12.4286 12.625Z" stroke="#D2010D" stroke-width="2" stroke-linecap="round" stroke-linejoin="round"/>
</g>
<defs>
<clipPath id="clip0_533_2808">
<rect width="24" height="24" fill="white"/>
</clipPath>
</defs>
</svg>
