<svg width="88" height="119" viewBox="0 0 88 119" fill="none" xmlns="http://www.w3.org/2000/svg">
<path d="M82.0974 26.062L21.5264 14.329C19.8323 14.0009 18.193 15.1082 17.8648 16.8022L1.23919 102.63C0.911031 104.324 2.01834 105.964 3.71242 106.292L64.2835 118.025C65.9775 118.353 67.6169 117.245 67.945 115.551L84.5707 29.7235C84.8988 28.0295 83.7915 26.3901 82.0974 26.062Z" fill="#D6D6D6"/>
<path d="M62.2204 111.022L77.5684 31.79L23.5884 21.3338L8.24038 100.566L62.2204 111.022Z" fill="white"/>
<path d="M71.1259 39.4983L26.6914 30.8911L26.0867 34.0127L70.5212 42.6199L71.1259 39.4983Z" fill="#F3F3F3"/>
<path d="M47.7651 41.0975L25.5479 36.7939L24.9528 39.8658L47.17 44.1694L47.7651 41.0975Z" fill="#F3F3F3"/>
<path d="M46.8305 45.9232L24.6133 41.6196L24.0182 44.6915L46.2355 48.9951L46.8305 45.9232Z" fill="#F3F3F3"/>
<path d="M45.8959 50.7479L23.6787 46.4443L23.0837 49.5162L45.3009 53.8198L45.8959 50.7479Z" fill="#F3F3F3"/>
<path d="M44.9604 55.5731L22.7432 51.2695L22.1481 54.3414L44.3653 58.645L44.9604 55.5731Z" fill="#F3F3F3"/>
<path d="M44.0273 60.3925L21.8101 56.0889L21.215 59.1608L43.4322 63.4644L44.0273 60.3925Z" fill="#F3F3F3"/>
<path d="M43.0917 65.2182L20.8745 60.9146L20.2795 63.9864L42.4967 68.2901L43.0917 65.2182Z" fill="#F3F3F3"/>
<path d="M42.1581 70.0433L19.9409 65.7397L19.3459 68.8116L41.5631 73.1152L42.1581 70.0433Z" fill="#F3F3F3"/>
<path d="M69.5975 45.3278L51.1299 41.7505L44.9282 73.766L63.3959 77.3433L69.5975 45.3278Z" fill="#ED999E"/>
<path d="M62.8478 80.1705L18.7974 71.6377L14.0369 96.2129L58.0874 104.746L62.8478 80.1705Z" fill="#F3F3F3"/>
<path d="M38.3916 14.4707L66.4002 19.8962C68.5461 20.3118 69.9521 22.3934 69.5364 24.5392L67.8676 33.154L32.0797 26.2217L33.7485 17.6068C34.1642 15.461 36.2457 14.0551 38.3916 14.4707Z" fill="#ED999E"/>
<path d="M54.1507 6.9665C51.0336 6.3627 48.0008 8.49368 47.3742 11.7282L45.68 20.4741L56.9648 22.66L58.659 13.9141C59.2855 10.6796 57.2678 7.5703 54.1507 6.9665ZM52.8941 13.4536C52.1216 13.304 51.6153 12.5544 51.7649 11.7819C51.9146 11.0094 52.6641 10.5031 53.4366 10.6528C54.2091 10.8024 54.7154 11.552 54.5658 12.3245C54.4162 13.097 53.6666 13.6033 52.8941 13.4536Z" fill="#ED999E"/>
</svg>
