<svg width="89" height="94" viewBox="0 0 89 94" fill="none" xmlns="http://www.w3.org/2000/svg">
<path d="M40.7745 9.69408C37.3719 10.0379 35.316 9.48181 29.9798 7.63507C24.6436 5.78833 20.2021 6.38304 20.2021 6.38304C9.71394 7.44285 2.74967 15.7293 2.83988 27.3238C2.83988 27.3238 2.55569 37.1666 11.2379 58.664C20.2741 81.0311 21.7421 85.3672 27.7948 89.845C29.1327 90.7268 30.7743 91.1746 32.4905 91.0012C34.6909 90.7788 36.5619 89.5899 37.7212 87.8979C37.7212 87.8979 39.6683 85.0834 40.9422 78.3247C42.1966 71.6709 42.9485 65.4799 46.3809 65.133C49.8132 64.7862 51.7927 70.7012 54.3487 76.97C56.9489 83.3373 59.4197 85.7053 59.4197 85.7053C60.8941 87.1312 62.9651 87.9218 65.1656 87.6994C66.886 87.5256 68.401 86.7631 69.535 85.6272C74.5652 80.0295 75.1404 75.487 79.5192 51.7643C83.7248 28.9604 81.4777 19.3776 81.4777 19.3776C79.2465 7.99942 70.7653 1.27374 60.2771 2.33354C60.2771 2.33354 55.8064 2.63939 50.9476 5.51632C46.0887 8.39325 44.1813 9.34983 40.783 9.69323L40.7745 9.69408Z" fill="white"/>
<g style="mix-blend-mode:multiply" opacity="0.45">
<path d="M28.0812 83.3287C18.3547 63.4731 10.515 40.8435 8.24704 26.7227C7.26742 20.6379 8.25832 14.264 10.4942 10.1029C5.64761 13.7811 2.78245 19.8681 2.84118 27.329C2.84118 27.329 2.55699 37.1719 11.2392 58.6693C20.2754 81.0364 21.7434 85.3724 27.7961 89.8502C29.134 90.7321 30.7756 91.1799 32.4918 91.0065C34.2079 90.833 35.8363 90.0033 36.9847 88.7973C31.6812 89.8653 28.0854 83.3283 28.0854 83.3283L28.0812 83.3287Z" fill="#ED999E"/>
</g>
<g style="mix-blend-mode:multiply" opacity="0.45">
<path d="M49.3544 11.9219C54.2778 11.4244 56.8207 9.19773 60.8235 7.57452C64.6777 6.00926 69.9208 5.32068 74.0355 6.24807C70.3159 3.2424 65.5485 1.80164 60.2726 2.33476C60.2726 2.33476 55.8019 2.64061 50.943 5.51754C46.0799 8.3949 44.1811 9.35062 40.7785 9.69444C38.5228 9.92237 36.8577 9.75162 34.438 9.07779C40.9481 13.0717 49.3587 11.9214 49.3587 11.9214L49.3544 11.9219Z" fill="#ED999E"/>
</g>
<path d="M59.2384 8.27932C57.3116 9.7657 55.0696 10.8505 52.7269 11.5764C51.5544 11.9481 50.3489 12.2072 49.132 12.3946C47.9133 12.5649 46.6749 12.6257 45.4412 12.6044C42.972 12.545 40.5197 12.059 38.2188 11.2015C35.9174 10.3398 33.7719 9.1104 31.8535 7.62207C33.9586 8.83406 36.1624 9.83439 38.4382 10.57C39.5839 10.9091 40.7364 11.2303 41.9172 11.4071C43.0921 11.6102 44.2767 11.7394 45.4666 11.7522C47.8471 11.8249 50.2331 11.528 52.5508 10.9377C53.7095 10.6403 54.8528 10.2759 55.9705 9.82826C57.0946 9.40141 58.1876 8.87901 59.2422 8.27465L59.2384 8.27932Z" fill="#ED999E"/>
<g style="mix-blend-mode:multiply" opacity="0.45">
<path d="M71.6646 23.4756C72.4637 25.1843 72.5567 27.1232 72.932 28.9691C73.0516 29.5578 73.2366 30.2 73.7383 30.5355C74.0648 30.7514 74.4735 30.8045 74.8652 30.7735C76.0704 30.6818 77.1338 29.8663 77.7678 28.8367C78.4023 27.8113 78.847 26.479 78.9702 25.2778C79.2167 22.8756 79.0049 20.6526 78.2701 18.3495C77.7872 16.8406 76.8322 15.2034 75.5091 14.2557C74.26 13.3606 72.6564 13.0764 71.1694 13.4369C68.5976 14.0615 67.6875 16.3935 68.7023 18.7499C69.4467 20.4684 70.8709 21.7792 71.6646 23.4756Z" fill="#ED999E"/>
</g>
</svg>
