<svg width="134" height="134" viewBox="0 0 134 134" fill="none" xmlns="http://www.w3.org/2000/svg">
<path d="M25.9659 27.9697C24.9306 33.9594 24.1872 40.0686 21.9108 45.7033C17.6798 56.1762 8.58408 63.9877 3.67946 74.162C-4.1188 90.3393 0.858813 111.643 15.0152 122.69C19.2063 125.959 24.028 128.365 29.0388 130.134C47.0246 136.488 66.5136 134.063 83.6864 125.757C100.859 117.451 114.262 103.118 123.471 86.4136C131.126 72.5227 136.087 55.476 132.613 41.698C131.349 36.6805 127.489 31.6896 123.315 28.6267C115.872 23.1613 105.81 23.7387 96.6547 22.5507C88.1496 21.4457 81.2075 19.6803 73.8141 15.3332C65.8864 10.6642 61.4032 1.45559 52.0188 0.141497C48.2225 -0.389449 43.5469 0.596119 40.1853 2.72322C36.3824 5.12907 32.5961 9.07798 30.4624 13.0568C27.9868 17.6693 26.8486 22.856 25.9626 27.9697H25.9659Z" fill="#F3F3F3"/>
</svg>
