<svg width="75" height="102" viewBox="0 0 75 102" fill="none" xmlns="http://www.w3.org/2000/svg">
<path d="M69.8877 22.5264L18.1224 12.4991C16.6746 12.2187 15.2736 13.165 14.9932 14.6128L0.784591 87.9636C0.504142 89.4114 1.45047 90.8124 2.89826 91.0929L54.6635 101.12C56.1113 101.401 57.5123 100.454 57.7928 99.0065L72.0014 25.6557C72.2818 24.2079 71.3355 22.8069 69.8877 22.5264Z" fill="#ED999E"/>
<path d="M52.8999 95.1349L66.0166 27.4208L19.8842 18.4846L6.76751 86.1987L52.8999 95.1349Z" fill="white"/>
<path d="M60.5107 34.0087L22.5361 26.6527L22.0194 29.3205L59.9939 36.6765L60.5107 34.0087Z" fill="#F3F3F3"/>
<path d="M40.5469 35.3763L21.5596 31.6984L21.051 34.3237L40.0383 38.0017L40.5469 35.3763Z" fill="#F3F3F3"/>
<path d="M39.748 39.5001L20.7607 35.8221L20.2522 38.4475L39.2395 42.1254L39.748 39.5001Z" fill="#F3F3F3"/>
<path d="M38.9492 43.6233L19.9619 39.9453L19.4534 42.5706L38.4407 46.2486L38.9492 43.6233Z" fill="#F3F3F3"/>
<path d="M38.1494 47.7463L19.1621 44.0684L18.6536 46.6937L37.6409 50.3717L38.1494 47.7463Z" fill="#F3F3F3"/>
<path d="M37.3525 51.8657L18.3652 48.1877L17.8567 50.8131L36.844 54.491L37.3525 51.8657Z" fill="#F3F3F3"/>
<path d="M36.5527 55.9894L17.5654 52.3114L17.0569 54.9367L36.0442 58.6147L36.5527 55.9894Z" fill="#F3F3F3"/>
<path d="M35.7549 60.1125L16.7676 56.4346L16.259 59.0599L35.2463 62.7379L35.7549 60.1125Z" fill="#F3F3F3"/>
<path d="M59.2047 38.9906L43.4219 35.9333L38.1218 63.2946L53.9046 66.3519L59.2047 38.9906Z" fill="#F8D9DB"/>
<path d="M53.4364 68.7688L15.79 61.4764L11.7217 82.479L49.3681 89.7714L53.4364 68.7688Z" fill="#F3F3F3"/>
<path d="M32.536 12.6194L56.4728 17.2561C58.3067 17.6113 59.5083 19.3903 59.1531 21.2241L57.7269 28.5866L27.1418 22.6621L28.568 15.2996C28.9232 13.4657 30.7022 12.2641 32.536 12.6194Z" fill="#F8D9DB"/>
<path d="M46.0037 6.2069C43.3398 5.69088 40.7479 7.51208 40.2124 10.2764L38.7646 17.7508L48.4088 19.619L49.8566 12.1445C50.3921 9.38023 48.6677 6.72293 46.0037 6.2069ZM44.9298 11.751C44.2696 11.6231 43.8369 10.9825 43.9648 10.3223C44.0927 9.6621 44.7333 9.22941 45.3935 9.35729C46.0537 9.48518 46.4864 10.1258 46.3585 10.786C46.2306 11.4462 45.59 11.8789 44.9298 11.751Z" fill="#F8D9DB"/>
</svg>
