<svg width="76" height="81" viewBox="0 0 76 81" fill="none" xmlns="http://www.w3.org/2000/svg">
<path d="M34.8443 8.86013C31.9364 9.15397 30.1793 8.67872 25.6189 7.10044C21.0585 5.52217 17.2627 6.03042 17.2627 6.03042C8.29933 6.93616 2.34753 14.018 2.42462 23.9269C2.42462 23.9269 2.18175 32.3389 9.60175 50.7112C17.3242 69.8267 18.5789 73.5324 23.7516 77.3593C24.895 78.1129 26.2979 78.4956 27.7646 78.3474C29.6451 78.1574 31.2442 77.1413 32.2349 75.6952C32.2349 75.6952 33.899 73.2899 34.9876 67.5137C36.0597 61.8272 36.7023 56.5362 39.6356 56.2398C42.569 55.9433 44.2607 60.9985 46.4451 66.356C48.6673 71.7976 50.7789 73.8214 50.7789 73.8214C52.0389 75.04 53.8089 75.7156 55.6894 75.5256C57.1597 75.3771 58.4545 74.7254 59.4236 73.7547C63.7226 68.9707 64.2141 65.0885 67.9564 44.8145C71.5505 25.3256 69.6301 17.1359 69.6301 17.1359C67.7233 7.41182 60.475 1.66387 51.5117 2.56961C51.5117 2.56961 47.6909 2.831 43.5384 5.2897C39.386 7.7484 37.7559 8.56592 34.8516 8.8594L34.8443 8.86013Z" fill="white"/>
<g style="mix-blend-mode:multiply" opacity="0.45">
<path d="M23.9958 71.7899C15.6833 54.8208 8.98341 35.4809 7.04513 23.4128C6.20793 18.2127 7.05477 12.7653 8.96557 9.20915C4.82361 12.3526 2.37498 17.5547 2.42517 23.931C2.42517 23.931 2.18229 32.343 9.60229 50.7153C17.3248 69.8308 18.5794 73.5365 23.7521 77.3634C24.8955 78.117 26.2985 78.4997 27.7651 78.3515C29.2318 78.2033 30.6235 77.4942 31.6049 76.4635C27.0725 77.3763 23.9994 71.7895 23.9994 71.7895L23.9958 71.7899Z" fill="#ED999E"/>
</g>
<g style="mix-blend-mode:multiply" opacity="0.45">
<path d="M42.1765 10.7635C46.3841 10.3383 48.5573 8.43534 51.9783 7.04811C55.2721 5.71038 59.753 5.12191 63.2694 5.91448C60.0906 3.34576 56.0163 2.11444 51.5074 2.57006C51.5074 2.57006 47.6867 2.83145 43.5342 5.29015C39.3781 7.74922 37.7553 8.566 34.8473 8.85985C32.9196 9.05464 31.4966 8.90871 29.4286 8.33284C34.9923 11.7461 42.1802 10.7631 42.1802 10.7631L42.1765 10.7635Z" fill="#ED999E"/>
</g>
<path d="M50.6239 7.65094C48.9772 8.92123 47.0611 9.84834 45.0591 10.4687C44.0569 10.7864 43.0268 11.0078 41.9867 11.1679C40.9452 11.3135 39.8869 11.3655 38.8325 11.3473C36.7223 11.2965 34.6265 10.8811 32.6601 10.1483C30.6933 9.41185 28.8597 8.3612 27.2202 7.08923C29.0192 8.12503 30.9027 8.97994 32.8476 9.60858C33.8267 9.89839 34.8117 10.1729 35.8208 10.324C36.8249 10.4976 37.8373 10.608 38.8543 10.619C40.8886 10.6811 42.9278 10.4274 44.9086 9.92283C45.8988 9.66873 46.8758 9.35729 47.8311 8.97471C48.7917 8.60991 49.7258 8.16344 50.6272 7.64694L50.6239 7.65094Z" fill="#ED999E"/>
<g style="mix-blend-mode:multiply" opacity="0.45">
<path d="M61.2438 20.6384C61.9268 22.0987 62.0062 23.7557 62.327 25.3333C62.4292 25.8364 62.5873 26.3852 63.016 26.672C63.2951 26.8565 63.6444 26.9019 63.9791 26.8754C65.0091 26.797 65.9179 26.1 66.4598 25.2201C67.002 24.3438 67.382 23.2051 67.4874 22.1786C67.698 20.1256 67.517 18.2258 66.889 16.2575C66.4763 14.9679 65.6602 13.5687 64.5294 12.7588C63.4619 11.9938 62.0914 11.7509 60.8206 12.059C58.6227 12.5928 57.8449 14.5858 58.7122 16.5996C59.3484 18.0683 60.5655 19.1886 61.2438 20.6384Z" fill="#ED999E"/>
</g>
</svg>
